<?xml version="1.0" encoding="UTF-8"?>
<svg width="40px" height="40px" viewBox="0 0 40 40" version="1.1" xmlns="http://www.w3.org/2000/svg" xmlns:xlink="http://www.w3.org/1999/xlink">
    <title>C501DA78-4101-4973-94F9-1D395B6448A4</title>
    <g id="Donation---Portal-Web-View---1" stroke="none" stroke-width="1" fill="none" fill-rule="evenodd">
        <g id="01---Homepage-Web---Landing-Page" transform="translate(-181.000000, -1206.000000)" fill="#FBFBFC">
            <g id="Body" transform="translate(0.000000, 704.000000)">
                <g id="Donate-in-PM-Fund" transform="translate(140.000000, 452.000000)">
                    <g id="Group-3" transform="translate(41.000000, 50.000000)">
                        <path d="M14.6777053,0 C16.988707,0 18.9631891,1.79931624 20.4445757,3.50880342 C21.9259624,1.79931624 23.9003569,0 26.2114462,0 C30.3494564,0 32.8888889,3.5342735 32.8888889,6.43290598 C32.8888889,12.7002564 25.5937203,18.5184615 20.4444007,22.2222222 C15.2952561,18.5187179 8,12.7009402 8,6.43290598 C8,3.53401709 10.5392574,0 14.6774427,0 L14.6777053,0 Z M16.645031,29.3882476 L9.44944937,21.2164734 C8.67495667,20.4826917 7.4286211,20.4921537 6.66379404,21.2408662 C5.88921267,21.9990408 5.88921267,23.2340475 6.66379404,23.9922221 C6.68383473,24.0115801 6.69873223,24.0311985 6.71850689,24.0505565 L9.3998797,27.1617284 C9.75245389,27.5751045 9.69774105,28.1874429 9.2806997,28.5326753 C8.85842649,28.877821 8.2329088,28.8242609 7.88024593,28.4160064 L5.22343626,25.3340017 C4.48352705,24.5950984 4.1111782,23.6327532 4.0962807,22.6700608 C4.0962807,22.6554772 4.09140354,22.6408936 4.09140354,22.62631 L3.97231221,10.8431805 C3.97231221,9.75895797 3.08351666,8.88888889 1.98615611,8.88888889 C0.888795546,8.88888889 0,9.75895797 0,10.8331977 L0,25.718037 C0,25.9367913 0.074398829,26.1459968 0.20883104,26.3158786 L8.30775101,36.441684 C8.71512672,36.9520238 8.93858923,37.5936162 8.93858923,38.2402434 L8.93858923,40 L16.8888889,40 L16.8881795,30.0250656 C16.8881795,29.7917277 16.7987945,29.5631642 16.645031,29.3882476 L16.645031,29.3882476 Z M39.9996452,10.8330621 L40,25.7181353 C40,25.936884 39.9254914,26.1460843 39.7913758,26.3159618 L31.6947714,36.4416865 C31.2872801,36.9520135 31.0589644,37.5889023 31.0589644,38.2402876 L31.0589644,40 L23.1111111,40 L23.1111111,30.0295695 C23.1111111,29.7963243 23.1956429,29.5725408 23.3495387,29.3928543 L30.5471611,21.2212853 C30.9197042,20.8662526 31.4064939,20.6766703 31.927877,20.6766703 C32.4593718,20.6766703 32.9562734,20.8808359 33.3336064,21.2453304 C34.1084075,22.0035726 34.1084075,23.2384616 33.3336064,23.9966171 C33.3139149,24.0159746 33.2937798,24.0355926 33.2788781,24.0549501 L30.5967448,27.1660438 C30.2439819,27.5742881 30.2939204,28.1917326 30.7159586,28.5369563 C31.1382629,28.8821801 31.763958,28.8333088 32.1168096,28.4202903 L34.7743727,25.3383631 C35.5144031,24.5994783 35.8869462,23.6419316 35.901848,22.6792633 C35.901848,22.6646801 35.9066378,22.6454093 35.9066378,22.6308261 L36.0262064,10.8330621 C36.0262064,9.75884931 36.915254,8.88888889 38.0129258,8.88888889 C39.1105976,8.88888889 39.9996452,9.75884931 39.9996452,10.8330621 L39.9996452,10.8330621 Z" id="Fill-1"></path>
                    </g>
                </g>
            </g>
        </g>
    </g>
</svg>