<?xml version="1.0" encoding="UTF-8"?>
<svg width="40px" height="40px" viewBox="0 0 40 40" version="1.1" xmlns="http://www.w3.org/2000/svg" xmlns:xlink="http://www.w3.org/1999/xlink">
    <title>1CA28D8B-C750-464A-823B-00CA78606A20</title>
    <defs>
        <polygon id="path-1" points="0 3.55271368e-15 40 3.55271368e-15 40 19.5103788 0 19.5103788"></polygon>
    </defs>
    <g id="Donation---Portal-Web-View---1" stroke="none" stroke-width="1" fill="none" fill-rule="evenodd">
        <g id="01---Homepage-Web---Landing-Page" transform="translate(-577.000000, -1206.000000)">
            <g id="Body" transform="translate(0.000000, 704.000000)">
                <g id="Donate-in-PM-Fund-Copy" transform="translate(536.000000, 452.000000)">
                    <g id="Group-6" transform="translate(41.000000, 50.000000)">
                        <g id="Group-3" transform="translate(0.000000, 20.489421)">
                            <mask id="mask-2" fill="white">
                                <use xlink:href="#path-1"></use>
                            </mask>
                            <g id="Clip-2"></g>
                            <path d="M39.2523599,4.08037882 L26.1277474,15.9623788 C25.9349893,16.1373788 25.69103,16.2393788 25.4330153,16.2563788 L10.0163895,17.2283788 C9.23933368,17.2783788 8.49540819,17.5863788 7.92114992,18.1053788 L6.36904627,19.5103788 L0,12.5303788 L8.79157286,4.57137882 C8.99637826,4.38537882 9.26142054,4.28037882 9.54352993,4.27237882 L22.5175503,4.07037882 C23.1289546,4.11437882 23.6861458,4.39037882 24.1037881,4.84837882 C24.5294621,5.31537882 24.7483228,5.91537882 24.7292478,6.53737882 C24.6810583,7.82337882 23.5927786,8.80837882 22.3027054,8.73337882 C22.2705791,8.73137882 22.2364448,8.72937882 22.2083343,8.73237882 L17.3150916,8.85937882 C16.6725649,8.87637882 16.167579,9.41237882 16.2017132,10.0593788 C16.2358475,10.7053788 16.7799873,11.2163788 17.4275338,11.1963788 L22.2745948,11.0703788 C23.5194904,11.1303788 24.6619832,10.6933788 25.5233707,9.93737882 C25.535418,9.92637882 25.5565009,9.91437882 25.5695523,9.90337882 L36.0678368,0.59037882 C37.0155637,-0.26662118 38.4943791,-0.18062118 39.3748416,0.78337882 C40.2543,1.74737882 40.1990829,3.22337882 39.2523599,4.08037882" id="Fill-1" fill="#FFFFFF" mask="url(#mask-2)"></path>
                        </g>
                        <path d="M14.5570456,0 C16.7034865,0 18.5376995,1.665 19.9141122,3.246 C21.289521,1.665 23.1237341,0 25.270175,0 C29.114292,0 31.4735698,3.27 31.4735698,5.952 C31.4735698,11.751 24.6969206,17.134 19.9141122,20.561 C15.1302999,17.134 8.35465468,11.751 8.35465468,5.952 C8.35465468,3.27 10.7129286,0 14.5570456,0 Z" id="Fill-4" fill="#FFFFFF"></path>
                    </g>
                </g>
            </g>
        </g>
    </g>
</svg>